<svg xmlns="http://www.w3.org/2000/svg" viewBox="0 0 64 64">
<defs><mask id="d"><rect width="64" height="64" fill="white"/><path d="M50.94 39.51L50.36 40.75L49.72 41.96L49.03 43.14L48.27 44.28L47.46 45.39L46.59 46.44L45.66 47.45L44.67 48.4L43.62 49.28L42.51 50.1L41.34 50.83L40.13 51.48L38.88 52.04L37.59 52.5L36.27 52.88L34.93 53.15L33.57 53.33L32.2 53.4L30.83 53.38L29.46 53.24L28.1 53L26.77 52.65L25.46 52.2L24.19 51.65L22.96 51.02L21.78 50.3L20.64 49.52L19.56 48.67L18.52 47.76L17.54 46.8L16.61 45.8L15.73 44.75L14.9 43.66L14.15 42.52L13.46 41.33L12.86 40.1L12.35 38.83L11.94 37.51L11.65 36.16L11.49 34.78L11.45 33.4L11.53 32.01L11.73 30.64L11.37 30.57L11.16 31.97L11.06 33.38L11.09 34.8L11.24 36.21L11.51 37.6L11.9 38.96L12.41 40.28L13.01 41.55L13.69 42.78L14.46 43.95L15.3 45.08L16.2 46.16L17.16 47.18L18.18 48.15L19.24 49.07L20.36 49.93L21.53 50.72L22.75 51.43L24.01 52.07L25.31 52.62L26.64 53.07L28.01 53.43L29.4 53.67L30.8 53.81L32.21 53.84L33.61 53.76L35.01 53.58L36.38 53.29L37.73 52.9L39.04 52.41L40.31 51.82L41.54 51.15L42.72 50.39L43.84 49.56L44.91 48.66L45.91 47.7L46.86 46.68L47.74 45.61L48.57 44.5L49.34 43.34L50.05 42.15L50.7 40.92L51.29 39.66Z" fill="black"/><path d="M53.13 26.93L53.66 28.36L54.05 29.84L54.29 31.36L54.36 32.91L54.27 34.44L54.07 35.95L53.74 37.43L53.31 38.88L52.78 40.29L52.16 41.64L51.45 42.95L50.68 44.21L49.84 45.41L48.94 46.57L47.99 47.68L46.98 48.75L45.92 49.77L44.8 50.75L43.63 51.66L42.39 52.51L41.09 53.29L39.73 53.98L38.31 54.56L36.84 55.04L35.33 55.39L33.8 55.61L32.24 55.71L30.69 55.67L29.14 55.52L27.62 55.25L26.12 54.88L24.65 54.41L23.22 53.85L21.83 53.2L20.48 52.47L19.17 51.67L17.91 50.79L16.71 49.84L15.56 48.8L14.49 47.69L13.49 46.49L12.58 45.22L12.18 45.49L13.11 46.79L14.12 48.01L15.22 49.15L16.4 50.2L17.63 51.16L18.92 52.04L20.25 52.85L21.63 53.57L23.05 54.22L24.51 54.79L26.01 55.26L27.54 55.64L29.09 55.91L30.67 56.07L32.25 56.1L33.84 56L35.4 55.77L36.94 55.41L38.44 54.92L39.88 54.31L41.25 53.6L42.57 52.8L43.82 51.93L45.01 51L46.13 50.01L47.21 48.97L48.22 47.9L49.19 46.77L50.1 45.61L50.96 44.39L51.75 43.12L52.46 41.8L53.09 40.42L53.63 38.99L54.06 37.52L54.38 36.01L54.57 34.47L54.64 32.92L54.55 31.34L54.3 29.79L53.88 28.29L53.34 26.84Z" fill="black"/></mask></defs>
<rect width="64" height="64" rx="14" fill="#0a0e1a"/>
<g fill="#f2ecdf" mask="url(#d)"><path d="M32.14 35.57L31.97 35.63L31.81 35.66L31.66 35.67L31.52 35.66L31.38 35.62L31.25 35.56L31.13 35.48L31.02 35.38L30.91 35.25L30.81 35.11L30.72 34.96L30.63 34.8L30.53 34.63L30.42 34.45L30.29 34.28L30.14 34.11L29.98 33.96L29.81 33.81L29.64 33.68L29.47 33.54L29.31 33.4L29.16 33.24L29.03 33.07L28.91 32.88L28.83 32.68L28.77 32.47L28.75 32.26L28.76 32.04L28.79 31.82L28.84 31.59L28.91 31.37L29 31.13L29.09 30.88L29.2 30.61L29.31 30.33L29.43 30.03L29.55 29.72L29.68 29.39L29.83 29.06L30 28.72L30.2 28.38L30.43 28.04L30.7 27.72L31 27.42L31.32 27.14L31.68 26.9L32.05 26.69L32.45 26.52L32.86 26.38L33.3 26.29L33.74 26.24L34.2 26.24L34.67 26.28L35.15 26.38L35.63 26.52L36.1 26.71L36.57 26.95L37.02 27.23L37.47 27.54L37.91 27.9L38.33 28.28L38.74 28.68L39.14 29.12L39.52 29.57L39.89 30.05L40.24 30.55L40.56 31.07L40.86 31.61L41.12 32.17L41.33 32.76L41.5 33.38L41.62 34.01L41.68 34.66L41.68 35.33L41.62 36L41.49 36.68L41.31 37.36L41.09 38.05L40.81 38.73L40.5 39.41L40.15 40.09L39.77 40.77L39.36 41.45L38.91 42.13L38.42 42.81L37.88 43.47L37.29 44.12L36.65 44.73L35.95 45.3L35.19 45.81L34.38 46.25L33.51 46.62L32.61 46.89L31.67 47.07L30.72 47.15L29.76 47.15L28.8 47.06L27.85 46.89L26.9 46.65L25.96 46.34L25.04 45.97L24.12 45.54L23.22 45.06L22.34 44.52L21.48 43.93L20.65 43.28L19.86 42.57L19.1 41.81L18.4 40.99L17.74 40.11L17.16 39.19L16.64 38.21L16.19 37.2L15.82 36.15L15.53 35.07L15.33 33.97L15.21 32.85L15.18 31.72L15.24 30.58L15.39 29.45L15.63 28.32L15.96 27.21L16.37 26.12L16.86 25.06L17.43 24.03L18.07 23.04L18.77 22.08L19.53 21.16L20.35 20.29L21.21 19.45L22.11 18.65L23.06 17.89L24.04 17.19L25.07 16.53L26.14 15.94L27.25 15.41L28.4 14.97L29.59 14.61L30.81 14.36L32.06 14.21L33.32 14.18L34.58 14.27L35.83 14.47L37.07 14.78L38.28 15.19L39.45 15.7L40.59 16.29L41.68 16.95L42.74 17.69L43.81 18.47L44.86 19.28L45.89 20.12L46.89 21.01L47.85 21.94L48.75 22.94L49.59 24L50.34 25.13L50.99 26.33L51.52 27.58L51.9 28.88L52.14 30.2L52.23 31.52L52.16 32.84L51.97 34.16L51.67 35.48L51.3 36.76L50.85 38.02L50.35 39.26L49.78 40.46L49.16 41.64L48.49 42.8L47.77 43.92L46.98 45L46.14 46.04L45.23 47.03L44.26 47.95L43.23 48.81L42.14 49.59L41 50.28L39.82 50.89L38.6 51.41L37.35 51.84L36.08 52.18L34.8 52.43L33.5 52.59L32.19 52.66L30.87 52.63L29.56 52.5L28.26 52.27L26.98 51.93L25.73 51.48L24.51 50.93L23.33 50.31L22.2 49.6L21.12 48.82L20.09 47.98L19.11 47.08L18.18 46.15L17.29 45.18L16.45 44.18L15.66 43.15L14.91 42.08L14.23 40.97L13.62 39.81L13.1 38.61L12.67 37.36L12.36 36.07L12.17 34.76L12.1 33.42L12.17 32.09L12.35 30.76L12.65 29.45L13.05 28.17L13.54 26.93L14.1 25.71L14.79 24.56L15.36 23.34L15.99 22.15L16.68 20.98L17.43 19.85L18.25 18.75L19.14 17.71L20.11 16.71L21.16 15.73L22.24 14.8L23.38 13.92L24.59 13.12L25.87 12.39L27.22 11.74L28.62 11.18L30.07 10.72L31.58 10.35L33.12 10.1L34.7 9.94L36.31 9.9L37.94 9.97L39.58 10.14L41.23 10.43L42.88 10.82L44.53 11.33L44.57 11.2L42.92 10.68L41.27 10.24L39.62 9.9L37.97 9.65L36.33 9.49L34.69 9.43L33.07 9.47L31.46 9.61L29.87 9.86L28.32 10.22L26.81 10.69L25.34 11.25L23.92 11.9L22.56 12.63L21.25 13.42L19.99 14.26L18.78 15.1L17.57 16L16.4 16.96L15.28 17.98L14.22 19.06L13.2 20.2L12.25 21.39L11.36 22.65L10.71 24.06L10.08 25.49L9.53 26.96L9.07 28.48L8.7 30.04L8.42 31.64L8.24 33.26L8.17 34.91L8.22 36.57L8.39 38.24L8.68 39.9L9.12 41.54L9.69 43.13L10.39 44.67L11.23 46.13L12.19 47.51L13.25 48.79L14.41 49.97L15.65 51.05L16.96 52.03L18.32 52.92L19.72 53.73L21.17 54.47L22.65 55.13L24.18 55.69L25.74 56.17L27.34 56.56L28.96 56.84L30.61 57.01L32.27 57.04L33.93 56.94L35.57 56.69L37.18 56.29L38.73 55.76L40.23 55.1L41.65 54.34L43 53.49L44.28 52.57L45.49 51.6L46.65 50.57L47.75 49.51L48.8 48.4L49.8 47.26L50.74 46.07L51.63 44.82L52.45 43.52L53.2 42.16L53.85 40.74L54.39 39.26L54.82 37.73L55.12 36.16L55.29 34.56L55.32 32.94L55.19 31.29L54.89 29.68L54.43 28.13L53.84 26.64L53.13 25.23L52.33 23.89L51.45 22.63L50.51 21.45L49.52 20.34L48.5 19.3L47.44 18.33L46.37 17.42L45.28 16.55L44.17 15.72L42.99 14.91L41.75 14.18L40.46 13.53L39.12 12.98L37.74 12.52L36.32 12.16L34.87 11.91L33.41 11.77L31.94 11.75L30.47 11.85L29.02 12.08L27.6 12.43L26.23 12.9L24.91 13.48L23.65 14.17L22.48 14.95L21.38 15.8L20.36 16.72L19.43 17.7L18.56 18.71L17.76 19.76L17.02 20.83L16.34 21.93L15.71 23.06L15.13 24.21L14.61 25.39L14.15 26.59L13.77 27.82L13.46 29.08L13.25 30.37L13.15 31.66L13.15 32.96L13.27 34.26L13.51 35.53L13.85 36.77L14.3 37.97L14.83 39.12L15.44 40.21L16.12 41.24L16.85 42.22L17.62 43.15L18.44 44.02L19.29 44.84L20.18 45.6L21.11 46.32L22.07 46.97L23.08 47.55L24.12 48.06L25.2 48.49L26.32 48.82L27.45 49.05L28.6 49.17L29.76 49.19L30.9 49.09L32.01 48.9L33.09 48.61L34.13 48.23L35.13 47.78L36.06 47.26L36.95 46.69L37.77 46.07L38.54 45.42L39.25 44.73L39.91 44.03L40.5 43.31L41.04 42.57L41.53 41.82L41.97 41.06L42.36 40.3L42.7 39.52L43 38.72L43.25 37.92L43.45 37.1L43.59 36.28L43.68 35.44L43.7 34.61L43.65 33.77L43.53 32.95L43.34 32.15L43.08 31.38L42.75 30.65L42.36 29.97L41.92 29.34L41.45 28.77L40.95 28.25L40.43 27.78L39.91 27.36L39.38 26.97L38.85 26.62L38.32 26.29L37.79 25.98L37.25 25.68L36.71 25.41L36.15 25.16L35.57 24.95L34.97 24.78L34.36 24.66L33.73 24.61L33.09 24.63L32.46 24.73L31.86 24.91L31.28 25.16L30.75 25.47L30.27 25.84L29.84 26.24L29.46 26.66L29.13 27.09L28.85 27.52L28.6 27.94L28.39 28.33L28.2 28.71L28.03 29.07L27.88 29.41L27.75 29.74L27.64 30.07L27.55 30.4L27.48 30.74L27.43 31.08L27.41 31.43L27.42 31.79L27.47 32.14L27.55 32.48L27.66 32.81L27.8 33.13L27.96 33.42L28.14 33.69L28.32 33.93L28.51 34.16L28.69 34.36L28.85 34.54L29.01 34.69L29.14 34.83L29.25 34.95L29.36 35.07L29.46 35.18L29.57 35.31L29.7 35.46L29.84 35.62L30 35.79L30.19 35.96L30.39 36.13L30.63 36.28L30.88 36.4L31.15 36.48L31.44 36.52L31.72 36.51L31.99 36.46L32.25 36.37L32.48 36.25Z"/></g>
<g fill="#f2ecdf" opacity="0.65"><circle cx='46.75' cy='8.66' r='0.55'/><circle cx='48.65' cy='6.86' r='0.35'/><circle cx='45.65' cy='6.26' r='0.28'/></g>
<circle cx="32" cy="33" r="1.4" fill="#ffd700"/>
</svg>
